<?xml version="1.0" standalone="yes"?>
<!DOCTYPE svg PUBLIC "-//W3C//DTD SVG 1.1//EN"
  "http://www.w3.org/Graphics/SVG/1.1/DTD/svg11.dtd">
<svg width="1000" height="1000" version="1.1" xmlns="http://www.w3.org/2000/svg"><line x1="953.1762813164295" y1="259.084538345975" x2="947.730969890036" y2="226.59536837149102" stroke="#ff0000" stroke-width="2" /><line x1="947.730969890036" y1="226.59536837149102" x2="938.7412035187364" y2="194.95242513984883" stroke="#ff2d00" stroke-width="2" /><line x1="938.7412035187364" y1="194.95242513984883" x2="926.3342311498516" y2="164.5630292840501" stroke="#ff5a00" stroke-width="2" /><line x1="926.3342311498516" y1="164.5630292840501" x2="910.6854634118837" y2="135.81582524463695" stroke="#ff8800" stroke-width="2" /><line x1="910.6854634118837" y1="135.81582524463695" x2="892.0157862203138" y2="109.07500972867754" stroke="#ffb500" stroke-width="2" /><line x1="892.0157862203138" y1="109.07500972867754" x2="870.5881795079904" y2="84.6749399992081" stroke="#ffe300" stroke-width="2" /><line x1="870.5881795079904" y1="84.6749399992081" x2="846.7036940012823" y2="62.915205636882604" stroke="#edff00" stroke-width="2" /><line x1="846.7036940012823" y1="62.915205636882604" x2="820.6968490007664" y2="44.05624013442153" stroke="#bfff00" stroke-width="2" /><line x1="820.6968490007664" y1="44.05624013442153" x2="792.930523171858" y2="28.315540204410183" stroke="#92ff00" stroke-width="2" /><line x1="792.930523171858" y1="28.315540204410183" x2="763.7904182641187" y2="15.864551135676095" stroke="#64ff00" stroke-width="2" /><line x1="763.7904182641187" y1="15.864551135676095" x2="733.6791823335392" y2="6.826266073259603" stroke="#37ff00" stroke-width="2" /><line x1="733.6791823335392" y1="6.826266073259603" x2="703.0102843352236" y2="1.2735758866692777" stroke="#0aff00" stroke-width="2" /><line x1="703.0102843352236" y1="1.2735758866692777" x2="672.2017358014414" y2="-0.7716054927113873" stroke="#00ff23" stroke-width="2" /><line x1="672.2017358014414" y1="-0.7716054927113873" x2="641.6697576615697" y2="0.661572444100841" stroke="#00ff50" stroke-width="2" /><line x1="641.6697576615697" y1="0.661572444100841" x2="611.8224910593601" y2="5.493598819044223" stroke="#00ff7e" stroke-width="2" /><line x1="611.8224910593601" y1="5.493598819044223" x2="583.0538502669151" y2="13.596079894114041" stroke="#00ffab" stroke-width="2" /><line x1="583.0538502669151" y1="13.596079894114041" x2="555.7376134958961" y2="24.793969886589707" stroke="#00ffd9" stroke-width="2" /><line x1="555.7376134958961" y1="24.793969886589707" x2="530.2218436013025" y2="38.86851807823086" stroke="#00f7ff" stroke-width="2" /><line x1="530.2218436013025" y1="38.86851807823086" x2="506.82372542187886" y2="55.56088500461124" stroke="#00c9ff" stroke-width="2" /><line x1="506.82372542187886" y1="55.56088500461124" x2="485.82489988683403" y2="74.57637003857815" stroke="#009cff" stroke-width="2" /><line x1="485.82489988683403" y1="74.57637003857815" x2="467.4673671455652" y2="95.58918312197846" stroke="#006fff" stroke-width="2" /><line x1="467.4673671455652" y1="95.58918312197846" x2="451.9500219698117" y2="118.24768490271947" stroke="#0041ff" stroke-width="2" /><line x1="451.9500219698117" y1="118.24768490271947" x2="439.42587467826854" y2="142.18001223360542" stroke="#0014ff" stroke-width="2" /><line x1="439.42587467826854" y1="142.18001223360542" x2="429.9999999999999" y2="167.00000000000023" stroke="#1900ff" stroke-width="2" /><line x1="429.9999999999999" y1="167.00000000000023" x2="423.7282447959402" y2="192.31330565932717" stroke="#4600ff" stroke-width="2" /><line x1="423.7282447959402" y1="192.31330565932717" x2="420.6167135787357" y2="217.72363976866154" stroke="#7400ff" stroke-width="2" /><line x1="420.6167135787357" y1="217.72363976866154" x2="420.6220384991342" y2="242.83900419584984" stroke="#a100ff" stroke-width="2" /><line x1="420.6220384991342" y1="242.83900419584984" x2="423.6524280956205" y2="267.2778396792645" stroke="#cf00ff" stroke-width="2" /><line x1="423.6524280956205" y1="267.2778396792645" x2="429.56947682814223" y2="290.6749859216008" stroke="#fc00ff" stroke-width="2" /><line x1="429.56947682814223" y1="290.6749859216008" x2="438.1907054301331" y2="312.6873604497067" stroke="#ff00d4" stroke-width="2" /><line x1="438.1907054301331" y1="312.6873604497067" x2="449.2927906046282" y2="332.9992669969057" stroke="#ff00a6" stroke-width="2" /><line x1="449.2927906046282" y1="332.9992669969057" x2="462.61543174148653" y2="351.3272500949204" stroke="#ff0079" stroke-width="2" /><line x1="462.61543174148653" y1="351.3272500949204" x2="477.8657923146112" y2="367.4244198054523" stroke="#ff004b" stroke-width="2" /><line x1="477.8657923146112" y1="367.4244198054523" x2="494.7234445884517" y2="381.0841789621625" stroke="#ff001e" stroke-width="2" /><line x1="494.7234445884517" y1="381.0841789621625" x2="512.8457383642692" y2="392.14329479876426" stroke="#ff0f00" stroke-width="2" /><line x1="512.8457383642692" y1="392.14329479876426" x2="531.8735078530517" y2="400.48426725797805" stroke="#ff3c00" stroke-width="2" /><line x1="531.8735078530517" y1="400.48426725797805" x2="551.4370254781867" y2="406.0369574445683" stroke="#ff6a00" stroke-width="2" /><line x1="551.4370254781867" y1="406.0369574445683" x2="571.1621075701718" y2="408.77945142715157" stroke="#ff9700" stroke-width="2" /><line x1="571.1621075701718" y1="408.77945142715157" x2="590.6762745781216" y2="408.7381467224715" stroke="#ffc400" stroke-width="2" /><line x1="590.6762745781216" y1="408.7381467224715" x2="609.6148676252632" y2="405.9870611208292" stroke="#fff200" stroke-width="2" /><line x1="609.6148676252632" y1="405.9870611208292" x2="627.6270239903168" y2="400.6463758376884" stroke="#deff00" stroke-width="2" /><line x1="627.6270239903168" y1="400.6463758376884" x2="644.381416391486" y2="392.8802371095235" stroke="#b0ff00" stroke-width="2" /><line x1="644.381416391486" y1="392.8802371095235" x2="659.5716647482514" y2="382.8938521001527" stroke="#83ff00" stroke-width="2" /><line x1="659.5716647482514" y1="382.8938521001527" x2="672.9213343380957" y2="370.92992616162576" stroke="#55ff00" stroke-width="2" /><line x1="672.9213343380957" y1="370.92992616162576" x2="684.1884408676942" y2="357.2644989247357" stroke="#28ff00" stroke-width="2" /><line x1="684.1884408676942" y1="357.2644989247357" x2="693.1693908365645" y2="342.20224621371943" stroke="#00ff05" stroke-width="2" /><line x1="693.1693908365645" y1="342.20224621371943" x2="699.7022945614167" y2="326.0713232374323" stroke="#00ff32" stroke-width="2" /><line x1="699.7022945614167" y1="326.0713232374323" x2="703.6695992093618" y2="309.217831771696" stroke="#00ff5f" stroke-width="2" /><line x1="703.6695992093618" y1="309.217831771696" x2="705.0" y2="291.99999999999926" stroke="#00ff8d" stroke-width="2" /><line x1="705.0" y1="291.99999999999926" x2="703.6695992093615" y2="274.78216822830257" stroke="#00ffba" stroke-width="2" /><line x1="703.6695992093615" y1="274.78216822830257" x2="699.7022945614162" y2="257.9286767625664" stroke="#00ffe8" stroke-width="2" /><line x1="699.7022945614162" y1="257.9286767625664" x2="693.1693908365639" y2="241.79775378627934" stroke="#00e8ff" stroke-width="2" /><line x1="693.1693908365639" y1="241.79775378627934" x2="684.1884408676934" y2="226.7355010752632" stroke="#00baff" stroke-width="2" /><line x1="684.1884408676934" y1="226.7355010752632" x2="672.9213343380948" y2="213.07007383837328" stroke="#008dff" stroke-width="2" /><line x1="672.9213343380948" y1="213.07007383837328" x2="659.5716647482503" y2="201.1061478998466" stroke="#005fff" stroke-width="2" /><line x1="659.5716647482503" y1="201.1061478998466" x2="644.3814163914849" y2="191.11976289047593" stroke="#0032ff" stroke-width="2" /><line x1="644.3814163914849" y1="191.11976289047593" x2="627.6270239903157" y2="183.3536241623112" stroke="#0005ff" stroke-width="2" /><line x1="627.6270239903157" y1="183.3536241623112" x2="609.6148676252619" y2="178.0129388791706" stroke="#2800ff" stroke-width="2" /><line x1="609.6148676252619" y1="178.0129388791706" x2="590.6762745781203" y2="175.26185327752847" stroke="#5500ff" stroke-width="2" /><line x1="590.6762745781203" y1="175.26185327752847" x2="571.1621075701705" y2="175.22054857284866" stroke="#8300ff" stroke-width="2" /><line x1="571.1621075701705" y1="175.22054857284866" x2="551.4370254781855" y2="177.96304255543203" stroke="#b000ff" stroke-width="2" /><line x1="551.4370254781855" y1="177.96304255543203" x2="531.8735078530506" y2="183.51573274202252" stroke="#de00ff" stroke-width="2" /><line x1="531.8735078530506" y1="183.51573274202252" x2="512.8457383642683" y2="191.85670520123642" stroke="#ff00f2" stroke-width="2" /><line x1="512.8457383642683" y1="191.85670520123642" x2="494.7234445884508" y2="202.91582103783827" stroke="#ff00c4" stroke-width="2" /><line x1="494.7234445884508" y1="202.91582103783827" x2="477.8657923146103" y2="216.57558019454862" stroke="#ff0097" stroke-width="2" /><line x1="477.8657923146103" y1="216.57558019454862" x2="462.6154317414857" y2="232.67274990508065" stroke="#ff006a" stroke-width="2" /><line x1="462.6154317414857" y1="232.67274990508065" x2="449.2927906046274" y2="251.00073300309538" stroke="#ff003c" stroke-width="2" /><line x1="449.2927906046274" y1="251.00073300309538" x2="438.1907054301324" y2="271.3126395502946" stroke="#ff000f" stroke-width="2" /><line x1="438.1907054301324" y1="271.3126395502946" x2="429.5694768281416" y2="293.32501407840056" stroke="#ff1e00" stroke-width="2" /><line x1="429.5694768281416" y1="293.32501407840056" x2="423.65242809562005" y2="316.7221603207369" stroke="#ff4b00" stroke-width="2" /><line x1="423.65242809562005" y1="316.7221603207369" x2="420.6220384991338" y2="341.16099580415164" stroke="#ff7900" stroke-width="2" /><line x1="420.6220384991338" y1="341.16099580415164" x2="420.61671357873547" y2="366.27636023134" stroke="#ffa600" stroke-width="2" /><line x1="420.61671357873547" y1="366.27636023134" x2="423.7282447959401" y2="391.68669434067436" stroke="#ffd400" stroke-width="2" /><line x1="423.7282447959401" y1="391.68669434067436" x2="430.0" y2="417.0000000000013" stroke="#fcff00" stroke-width="2" /><line x1="430.0" y1="417.0000000000013" x2="439.4258746782687" y2="441.81998776639614" stroke="#cfff00" stroke-width="2" /><line x1="439.4258746782687" y1="441.81998776639614" x2="451.95002196981204" y2="465.752315097282" stroke="#a1ff00" stroke-width="2" /><line x1="451.95002196981204" y1="465.752315097282" x2="467.4673671455657" y2="488.410816878023" stroke="#74ff00" stroke-width="2" /><line x1="467.4673671455657" y1="488.410816878023" x2="485.8248998868346" y2="509.4236299614233" stroke="#46ff00" stroke-width="2" /><line x1="485.8248998868346" y1="509.4236299614233" x2="506.82372542187954" y2="528.4391149953901" stroke="#19ff00" stroke-width="2" /><line x1="506.82372542187954" y1="528.4391149953901" x2="530.2218436013032" y2="545.1314819217704" stroke="#00ff14" stroke-width="2" /><line x1="530.2218436013032" y1="545.1314819217704" x2="555.737613495897" y2="559.2060301134113" stroke="#00ff41" stroke-width="2" /><line x1="555.737613495897" y1="559.2060301134113" x2="583.053850266916" y2="570.403920105887" stroke="#00ff6f" stroke-width="2" /><line x1="583.053850266916" y1="570.403920105887" x2="611.822491059361" y2="578.5064011809567" stroke="#00ff9c" stroke-width="2" /><line x1="611.822491059361" y1="578.5064011809567" x2="641.6697576615708" y2="583.3384275558999" stroke="#00ffc9" stroke-width="2" /><line x1="641.6697576615708" y1="583.3384275558999" x2="672.2017358014425" y2="584.7716054927121" stroke="#00fff7" stroke-width="2" /><line x1="672.2017358014425" y1="584.7716054927121" x2="703.0102843352246" y2="582.7264241133312" stroke="#00d9ff" stroke-width="2" /><line x1="703.0102843352246" y1="582.7264241133312" x2="733.6791823335403" y2="577.1737339267407" stroke="#00abff" stroke-width="2" /><line x1="733.6791823335403" y1="577.1737339267407" x2="763.7904182641198" y2="568.1354488643242" stroke="#007eff" stroke-width="2" /><line x1="763.7904182641198" y1="568.1354488643242" x2="792.9305231718591" y2="555.6844597955899" stroke="#0050ff" stroke-width="2" /><line x1="792.9305231718591" y1="555.6844597955899" x2="820.6968490007677" y2="539.9437598655784" stroke="#0023ff" stroke-width="2" /><line x1="820.6968490007677" y1="539.9437598655784" x2="846.7036940012835" y2="521.0847943631171" stroke="#0a00ff" stroke-width="2" /><line x1="846.7036940012835" y1="521.0847943631171" x2="870.5881795079915" y2="499.3250600007915" stroke="#3700ff" stroke-width="2" /><line x1="870.5881795079915" y1="499.3250600007915" x2="892.0157862203147" y2="474.9249902713219" stroke="#6400ff" stroke-width="2" /><line x1="892.0157862203147" y1="474.9249902713219" x2="910.6854634118845" y2="448.1841747553624" stroke="#9200ff" stroke-width="2" /><line x1="910.6854634118845" y1="448.1841747553624" x2="926.3342311498523" y2="419.43697071594914" stroke="#bf00ff" stroke-width="2" /><line x1="926.3342311498523" y1="419.43697071594914" x2="938.7412035187369" y2="389.04757486015035" stroke="#ed00ff" stroke-width="2" /><line x1="938.7412035187369" y1="389.04757486015035" x2="947.7309698900362" y2="357.40463162850807" stroke="#ff00e3" stroke-width="2" /><line x1="947.7309698900362" y1="357.40463162850807" x2="953.1762813164297" y2="324.91546165402406" stroke="#ff00b5" stroke-width="2" /><line x1="953.1762813164297" y1="324.91546165402406" x2="955.0" y2="291.99999999999903" stroke="#ff0088" stroke-width="2" /><line x1="955.0" y1="291.99999999999903" x2="953.1762813164294" y2="259.084538345974" stroke="#ff005a" stroke-width="2" /></svg>